<svg width="66" height="66" viewBox="0 0 66 66" fill="none" xmlns="http://www.w3.org/2000/svg">
<circle cx="33" cy="33" r="33" fill="#89DEB8"/>
<path d="M41.1797 16C43.872 16.0001 46.0546 18.1833 46.0547 20.876C46.0547 22.5163 46.1907 24.3737 47.2627 25.6152C50.2142 29.0329 52 33.487 52 38.3574C51.9997 49.1279 43.2692 50.0107 32.5 50.0107C21.7308 50.0107 13.0003 49.1279 13 38.3574C13.0001 27.5865 21.7306 18.8546 32.5 18.8545C34.8428 18.8544 37.1371 17.2823 39.2979 16.377C39.8768 16.1344 40.5127 16 41.1797 16ZM28.7383 27.4238C27.5847 27.4249 26.6494 29.9503 26.6494 33.0654C26.6495 36.1804 27.5848 38.706 28.7383 38.707C29.8921 38.707 30.8281 36.1811 30.8281 33.0654C30.8281 29.9497 29.8921 27.4238 28.7383 27.4238ZM21.3887 27.0137C20.2367 26.9506 19.1637 29.4215 18.9922 32.5322C18.8207 35.643 19.6156 38.2163 20.7676 38.2803C20.7779 38.2808 20.7885 38.2791 20.7988 38.2793C20.8902 38.3304 20.9833 38.3583 21.0791 38.3584C21.4757 38.3581 21.8381 37.9011 22.124 37.1396C22.6644 36.1348 23.0651 34.5558 23.1641 32.7627C23.3356 29.6517 22.5408 27.0772 21.3887 27.0137ZM15.225 15.4547C15.0816 16.1603 14.8327 17.1846 14.4781 18.5275C14.1342 19.8182 13.8918 20.8098 13.7511 21.5024C13.7139 21.6853 13.65 22.0669 13.5593 22.6471C13.5011 22.8666 13.3882 23.0205 13.2205 23.1089C13.0556 23.1842 12.8751 23.2019 12.6791 23.1621C12.47 23.1196 12.2912 23.0288 12.1426 22.8898C11.9939 22.7507 11.9173 22.5923 11.9126 22.4145C11.9736 21.3112 12.1554 20.0148 12.4581 18.5252L13.0991 15.4717C13.1973 14.9882 13.3358 14.6082 13.5144 14.3316C13.7088 14.0445 14.0151 13.9435 14.4332 14.0285C14.786 14.1002 15.0234 14.2709 15.1455 14.5406C15.2702 14.7972 15.2967 15.102 15.225 15.4547ZM12.374 24.1614C13.2625 24.3419 13.639 24.7654 13.5036 25.4318C13.4345 25.7715 13.2598 26.0625 12.9792 26.3048C12.7144 26.5367 12.4186 26.6195 12.092 26.5531C11.7 26.4734 11.4038 26.2908 11.2033 26.0052C11.0055 25.7064 10.9398 25.3938 11.0062 25.0671C11.0646 24.7796 11.2222 24.5396 11.4791 24.3469C11.749 24.1568 12.0473 24.095 12.374 24.1614Z" fill="white"/>
</svg>
