<svg width="66" height="66" viewBox="0 0 66 66" fill="none" xmlns="http://www.w3.org/2000/svg">
<circle cx="33" cy="33" r="33" fill="#FDDD86"/>
<path d="M41.1797 16C43.872 16 46.0546 18.1833 46.0547 20.876C46.0547 22.5163 46.1907 24.3737 47.2627 25.6152C50.2141 29.0328 51.9999 33.4862 52 38.3564C52 49.1275 43.2694 50.0107 32.5 50.0107C21.7305 50.0107 13 49.1275 13 38.3564C13.0003 27.5856 21.7307 18.8545 32.5 18.8545C34.8429 18.8544 37.137 17.2823 39.2979 16.377C39.8769 16.1344 40.5126 16 41.1797 16ZM16 36V38H25.5V36H16ZM32 38H42V36H32V38ZM16 35H25.5V33H16V35ZM32 35H42V33H32V35Z" fill="white"/>
</svg>
