<svg width="66" height="66" viewBox="0 0 66 66" fill="none" xmlns="http://www.w3.org/2000/svg">
<circle cx="33" cy="33" r="33" fill="#B4CFCE"/>
<path d="M41.1797 16C43.872 16.0001 46.0546 18.1833 46.0547 20.876C46.0547 22.5163 46.1907 24.3737 47.2627 25.6152C50.2142 29.0329 52 33.487 52 38.3574C51.9997 49.1279 43.2692 50.0107 32.5 50.0107C21.7308 50.0107 13.0003 49.1279 13 38.3574C13.0001 27.5865 21.7306 18.8546 32.5 18.8545C34.8428 18.8544 37.1371 17.2823 39.2979 16.377C39.8768 16.1344 40.5127 16 41.1797 16ZM30 32.9609L34.96 39.2373L36.1367 38.3066L36.5293 37.9971L32.8096 33.2891L36.3398 30.499L36.7324 30.1895L37.5166 29.5693L36.2764 28L30 32.9609ZM21.3887 27.0137C20.2367 26.9506 19.1637 29.4215 18.9922 32.5322C18.8207 35.643 19.6156 38.2163 20.7676 38.2803C20.7779 38.2808 20.7885 38.2791 20.7988 38.2793C20.8902 38.3304 20.9833 38.3583 21.0791 38.3584C21.4757 38.3581 21.8381 37.9011 22.124 37.1396C22.6644 36.1348 23.0651 34.5558 23.1641 32.7627C23.3356 29.6517 22.5408 27.0772 21.3887 27.0137Z" fill="white"/>
</svg>
