<svg width="66" height="66" viewBox="0 0 66 66" fill="none" xmlns="http://www.w3.org/2000/svg">
<circle cx="33" cy="33" r="33" fill="#D4D4D4"/>
<path d="M41.1797 16C43.872 16 46.0546 18.1833 46.0547 20.876C46.0547 22.5163 46.1907 24.3737 47.2627 25.6152C50.2141 29.0328 51.9999 33.4862 52 38.3564C52 49.1275 43.2694 50.0107 32.5 50.0107C21.7305 50.0107 13 49.1275 13 38.3564C13.0003 27.5856 21.7307 18.8545 32.5 18.8545C34.8429 18.8544 37.137 17.2823 39.2979 16.377C39.8769 16.1344 40.5126 16 41.1797 16ZM32.7656 41.5439C32.2751 41.5439 31.8271 41.7037 31.4219 42.0234C31.038 42.3433 30.8458 42.717 30.8457 43.1436C30.8457 43.9542 31.0696 44.5198 31.5176 44.8398C31.8802 45.0531 32.2537 45.1602 32.6377 45.1602C33.1709 45.1601 33.6615 45.0105 34.1094 44.7119C34.5573 44.3919 34.7812 43.9967 34.7812 43.5273C34.7811 42.973 34.6215 42.5357 34.3018 42.2158C33.9178 41.7679 33.4055 41.544 32.7656 41.5439ZM33.1494 24.5518C31.6777 24.5518 30.4083 24.8075 29.3418 25.3193C28.2752 25.8313 27.4638 26.4931 26.9092 27.3037C26.3546 28.093 26.0772 28.9252 26.0771 29.7998C26.0772 30.7168 26.2587 31.4741 26.6211 32.0713C26.9838 32.6686 27.5603 32.9678 28.3496 32.9678C28.9682 32.9677 29.4051 32.6686 29.6611 32.0713C29.725 31.9009 29.7578 31.7519 29.7578 31.624C29.7578 31.3894 29.6399 31.1327 29.4053 30.8555C29.1708 30.5568 29.0537 30.1088 29.0537 29.5117C29.0538 29.1491 29.2033 28.7973 29.502 28.4561C29.8218 28.0936 30.2373 27.8051 30.749 27.5918C31.2823 27.3571 31.8589 27.2402 32.4775 27.2402C32.8615 27.2402 33.2777 27.3354 33.7256 27.5273C34.1735 27.7193 34.5362 27.9759 34.8135 28.2959C35.0053 28.5304 35.1442 28.7437 35.2295 28.9355C35.3361 29.1274 35.3896 29.3943 35.3896 29.7354C35.3896 30.034 35.2717 30.3867 35.0371 30.792C34.8025 31.1758 34.515 31.5496 34.1738 31.9121C34.0885 32.0188 33.8853 32.2428 33.5654 32.584C33.2669 32.9252 33.0211 33.2662 32.8291 33.6074C32.2532 34.61 31.8589 35.5384 31.6455 36.3916C31.4322 37.2448 31.3252 37.981 31.3252 38.5996C31.3252 39.7516 31.8056 40.3281 32.7656 40.3281C33.1282 40.3281 33.48 40.221 33.8213 40.0078C34.1625 39.7732 34.3339 39.4105 34.334 38.9199C34.4193 37.9387 34.4936 37.2234 34.5576 36.7754C34.643 36.3062 34.8243 35.8046 35.1016 35.2715C35.3789 34.717 35.816 34.1302 36.4131 33.5117C37.0957 32.7864 37.598 32.1355 37.918 31.5596C38.2378 30.9837 38.3975 30.3326 38.3975 29.6074C38.3974 28.5836 38.0665 27.6234 37.4053 26.7275C36.9147 26.0238 36.2962 25.4905 35.5498 25.1279C34.8032 24.744 34.0027 24.5518 33.1494 24.5518Z" fill="white"/>
</svg>
