<svg width="66" height="66" viewBox="0 0 66 66" fill="none" xmlns="http://www.w3.org/2000/svg">
<circle cx="33" cy="33" r="33" fill="#B7E7A5"/>
<path d="M41.1797 16C43.872 16.0001 46.0546 18.1833 46.0547 20.876C46.0547 22.5163 46.1907 24.3737 47.2627 25.6152C50.2142 29.0329 52 33.487 52 38.3574C51.9997 49.1279 43.2692 50.0107 32.5 50.0107C21.7308 50.0107 13.0003 49.1279 13 38.3574C13.0001 27.5865 21.7306 18.8546 32.5 18.8545C34.8428 18.8544 37.1371 17.2823 39.2979 16.377C39.8768 16.1344 40.5127 16 41.1797 16ZM38.2412 33.0176C36.081 33.0665 33.6986 33.8956 31.7012 36.2607L32.2734 36.7441L32.8467 37.2275C34.5419 35.2202 36.5051 34.5567 38.2754 34.5166C40.0761 34.4758 41.6944 35.0834 42.6094 35.6406L43.3906 34.3594C42.2689 33.6762 40.3706 32.9693 38.2412 33.0176ZM26.1729 35.3105C24.9499 33.6796 21.3404 30.8175 16.7285 32.6533L17.0049 33.3496L17.2832 34.0469C21.0002 32.5672 23.9544 34.8528 24.9727 36.2109L26.1729 35.3105Z" fill="white"/>
</svg>
