<svg width="66" height="66" viewBox="0 0 66 66" fill="none" xmlns="http://www.w3.org/2000/svg">
<circle cx="33" cy="33" r="33" fill="#FCBDDC"/>
<path d="M41.1797 16C43.872 16.0001 46.0546 18.1833 46.0547 20.876C46.0547 22.5163 46.1907 24.3737 47.2627 25.6152C50.2142 29.0329 52 33.487 52 38.3574C51.9997 49.1279 43.2692 50.0107 32.5 50.0107C21.7308 50.0107 13.0003 49.1279 13 38.3574C13.0001 27.5865 21.7306 18.8546 32.5 18.8545C34.8428 18.8544 37.1371 17.2823 39.2979 16.377C39.8768 16.1344 40.5127 16 41.1797 16ZM36.6406 31.8418L31.1406 34.8418L31.8594 36.1582L37 33.3535L42.1406 36.1582L42.8594 34.8418L37.3594 31.8418L37 31.6455L36.6406 31.8418ZM21.1357 31.8447L16.6357 34.3447L17.3643 35.6553L21.5 33.3574L25.6357 35.6553L26.3643 34.3447L21.8643 31.8447L21.5 31.6416L21.1357 31.8447Z" fill="white"/>
</svg>
