<svg width="66" height="66" viewBox="0 0 66 66" fill="none" xmlns="http://www.w3.org/2000/svg">
<circle cx="33" cy="33" r="33" fill="#D4C7F5"/>
<path d="M41.1797 16C43.872 16.0001 46.0546 18.1833 46.0547 20.876C46.0547 22.5163 46.1907 24.3737 47.2627 25.6152C50.2142 29.0329 52 33.487 52 38.3574C51.9997 49.1279 43.2692 50.0107 32.5 50.0107C21.7308 50.0107 13.0003 49.1279 13 38.3574C13.0001 27.5865 21.7306 18.8546 32.5 18.8545C34.8428 18.8544 37.1371 17.2823 39.2979 16.377C39.8768 16.1344 40.5127 16 41.1797 16ZM27.9385 34.8789L28.3242 35.6787C28.8288 36.7267 29.6112 37.6377 30.7402 38.1465C31.8713 38.6561 33.2562 38.72 34.8809 38.2529C36.6596 37.7414 37.871 36.9388 38.6426 35.9004C39.411 34.866 39.682 33.6798 39.7383 32.5186L39.7891 31.4717L27.9385 34.8789ZM15.3379 31.5137C15.0447 32.4486 14.9656 33.4627 15.3115 34.417C15.6634 35.3872 16.4184 36.1953 17.5967 36.7666C18.876 37.3868 20.0208 37.5106 21.0498 37.2285C22.0599 36.9514 22.8598 36.3097 23.5146 35.5928L24.1924 34.8506L15.5996 30.6846L15.3379 31.5137Z" fill="white"/>
</svg>
