<svg width="66" height="66" viewBox="0 0 66 66" fill="none" xmlns="http://www.w3.org/2000/svg">
<circle cx="33" cy="33" r="33" fill="#FDEEAD"/>
<path d="M41.1797 16C43.872 16.0001 46.0546 18.1833 46.0547 20.876C46.0547 22.5163 46.1907 24.3737 47.2627 25.6152C50.2142 29.0329 52 33.487 52 38.3574C51.9997 49.1279 43.2692 50.0107 32.5 50.0107C21.7308 50.0107 13.0003 49.1279 13 38.3574C13.0001 27.5865 21.7306 18.8546 32.5 18.8545C34.8428 18.8544 37.1371 17.2823 39.2979 16.377C39.8768 16.1344 40.5127 16 41.1797 16ZM28.7383 27.4238C27.5847 27.4249 26.6494 29.9503 26.6494 33.0654C26.6495 36.1804 27.5848 38.706 28.7383 38.707C29.8921 38.707 30.8281 36.1811 30.8281 33.0654C30.8281 29.9497 29.8921 27.4238 28.7383 27.4238ZM21.3887 27.0137C20.2367 26.9506 19.1637 29.4215 18.9922 32.5322C18.8207 35.643 19.6156 38.2163 20.7676 38.2803C20.7779 38.2808 20.7885 38.2791 20.7988 38.2793C20.8902 38.3304 20.9833 38.3583 21.0791 38.3584C21.4757 38.3581 21.8381 37.9011 22.124 37.1396C22.6644 36.1348 23.0651 34.5558 23.1641 32.7627C23.3356 29.6517 22.5408 27.0772 21.3887 27.0137ZM10.8646 15.4826C11.0829 14.8391 11.9171 14.8391 12.1354 15.4826L13.2217 18.6852C13.2903 18.8875 13.4365 19.047 13.6219 19.1218L16.5576 20.3069C17.1475 20.545 17.1475 21.455 16.5576 21.6931L13.6219 22.8782C13.4365 22.953 13.2903 23.1125 13.2217 23.3148L12.1354 26.5174C11.9171 27.1609 11.0829 27.1609 10.8646 26.5174L9.77833 23.3148C9.70971 23.1125 9.5635 22.953 9.37807 22.8782L6.44236 21.6931C5.85255 21.455 5.85255 20.545 6.44236 20.3069L9.37807 19.1218C9.5635 19.047 9.70971 18.8875 9.77833 18.6852L10.8646 15.4826ZM53.5379 46.3619C53.6966 45.8794 54.3034 45.8794 54.4621 46.3619L55.2521 48.7639C55.302 48.9156 55.4084 49.0352 55.5432 49.0914L57.6783 49.9802C58.1072 50.1587 58.1072 50.8413 57.6783 51.0198L55.5432 51.9086C55.4084 51.9648 55.302 52.0844 55.2521 52.2361L54.4621 54.6381C54.3034 55.1206 53.6966 55.1206 53.5379 54.6381L52.7479 52.2361C52.698 52.0844 52.5916 51.9648 52.4568 51.9086L50.3217 51.0198C49.8928 50.8413 49.8928 50.1587 50.3217 49.9802L52.4568 49.0914C52.5916 49.0352 52.698 48.9156 52.7479 48.7639L53.5379 46.3619Z" fill="white"/>
</svg>
