<svg width="66" height="66" viewBox="0 0 66 66" fill="none" xmlns="http://www.w3.org/2000/svg">
<circle cx="33" cy="33" r="33" fill="#FCBFA9"/>
<path d="M41.1797 16C43.872 16.0001 46.0546 18.1833 46.0547 20.876C46.0547 22.5163 46.1907 24.3737 47.2627 25.6152C50.2142 29.0329 52 33.487 52 38.3574C51.9997 49.1279 43.2692 50.0107 32.5 50.0107C21.7308 50.0107 13.0003 49.1279 13 38.3574C13.0001 27.5865 21.7306 18.8546 32.5 18.8545C34.8428 18.8544 37.1371 17.2823 39.2979 16.377C39.8768 16.1344 40.5127 16 41.1797 16ZM25.7422 33.1318L16.7256 30.2852L16.2744 31.7148L23.3857 33.96L16.751 36.292L17.249 37.708L25.7705 34.7129L35.2744 37.7148L35.7256 36.2852L28.127 33.8857L35.749 31.208L35.251 29.792L25.7422 33.1318Z" fill="white"/>
</svg>
