<svg width="66" height="66" viewBox="0 0 66 66" fill="none" xmlns="http://www.w3.org/2000/svg">
<circle cx="33" cy="33" r="33" fill="#BBD3F7"/>
<path d="M41.1797 16C43.872 16.0001 46.0546 18.1833 46.0547 20.876C46.0547 22.5163 46.1907 24.3737 47.2627 25.6152C50.2142 29.0329 52 33.487 52 38.3574C51.9997 49.1279 43.2692 50.0107 32.5 50.0107C21.7308 50.0107 13.0003 49.1279 13 38.3574C13.0001 27.5865 21.7306 18.8546 32.5 18.8545C34.8428 18.8544 37.1371 17.2823 39.2979 16.377C39.8768 16.1344 40.5127 16 41.1797 16ZM31 34.9609L35.96 41.2373L37.1367 40.3066L37.5293 39.9971L33.8096 35.2891L37.3398 32.499L37.7324 32.1895L38.5166 31.5693L37.2764 30L31 34.9609ZM19.1553 28.9141L18.7588 29.2178L22.4131 33.9766L18.8438 36.7178L18.4473 37.0225L17.6543 37.6309L18.873 39.2178L25.2178 34.3447L20.3447 28L19.1553 28.9141Z" fill="white"/>
</svg>
