<svg width="66" height="66" viewBox="0 0 66 66" fill="none" xmlns="http://www.w3.org/2000/svg">
<path d="M41.1807 16C43.873 16.0001 46.0556 18.1833 46.0557 20.876C46.0557 22.5163 46.1917 24.3737 47.2637 25.6152C50.2152 29.0329 52.001 33.487 52.001 38.3574C52.0007 49.1279 43.2702 50.0107 32.501 50.0107C21.9106 50.0107 13.2914 49.157 13.0078 38.8857L17.6592 30.3594L16.3428 29.6406L13.2324 35.3418C14.6817 26.0026 22.7569 18.8546 32.501 18.8545C34.8437 18.8544 37.138 17.2823 39.2988 16.377C39.8778 16.1344 40.5137 16 41.1807 16ZM22.3682 40.5977L23.6338 41.4023L30.6338 30.4023L29.3682 29.5977L22.3682 40.5977ZM26.3682 40.5977L27.6338 41.4023L34.6338 30.4023L33.3682 29.5977L26.3682 40.5977ZM14.3428 40.6406L15.6592 41.3594L21.6592 30.3594L20.3428 29.6406L14.3428 40.6406ZM18.3428 40.6406L19.6592 41.3594L25.6592 30.3594L24.3428 29.6406L18.3428 40.6406ZM31.3428 40.6406L32.6592 41.3594L38.6592 30.3594L37.3428 29.6406L31.3428 40.6406ZM35.3428 40.6406L36.6592 41.3594L42.6592 30.3594L41.3428 29.6406L35.3428 40.6406ZM39.3428 40.6406L40.6592 41.3594L46.6592 30.3594L45.3428 29.6406L39.3428 40.6406Z" fill="white"/>
</svg>
