<svg width="66" height="66" viewBox="0 0 66 66" fill="none" xmlns="http://www.w3.org/2000/svg">
<path d="M41.1797 16C43.872 16.0001 46.0546 18.1833 46.0547 20.876C46.0547 22.5163 46.1907 24.3737 47.2627 25.6152C50.2142 29.0329 52 33.487 52 38.3574C51.9997 49.1279 43.2692 50.0107 32.5 50.0107C21.7308 50.0107 13.0003 49.1279 13 38.3574C13.0001 27.5865 21.7306 18.8546 32.5 18.8545C34.8428 18.8544 37.1371 17.2823 39.2979 16.377C39.8768 16.1344 40.5127 16 41.1797 16ZM30.8086 33.7275C32.0451 35.348 35.6789 38.1805 40.2754 36.3057L39.9922 35.6113L39.709 34.916C36.0046 36.4271 33.0317 34.1669 32.002 32.8174L30.8086 33.7275ZM24.2871 32.4238C22.8489 33.9945 21.258 34.4455 19.8486 34.4014C18.4066 34.3561 17.1321 33.7885 16.4229 33.2939L15.5645 34.5244C16.4724 35.1575 18.0233 35.8455 19.8008 35.9014C21.6111 35.9581 23.6364 35.3555 25.3936 33.4365L24.2871 32.4238Z" fill="white"/>
<path d="M8.93521 31.3011C8.64686 31.241 8.45951 31.1489 8.37316 31.0249C8.28756 30.8942 8.25202 30.7659 8.26653 30.6401C8.2757 30.5606 8.30257 30.4731 8.34714 30.3776C8.39171 30.2821 8.43284 30.2164 8.47054 30.1804C8.82611 29.8322 9.48682 29.2239 10.4527 28.3555C11.4185 27.4871 12.0659 26.9075 12.3947 26.6166L12.0096 26.552C11.6608 26.4917 11.3673 26.4478 11.1289 26.4203C11.0428 26.4103 10.8223 26.4017 10.4675 26.3943C10.2451 26.4022 10.0445 26.3959 9.86569 26.3752C9.60741 26.3454 9.42133 26.3005 9.30747 26.2404C9.20099 26.1744 9.13832 26.1068 9.11947 26.0375C9.10724 25.969 9.108 25.8751 9.12175 25.7559C9.13168 25.6698 9.17472 25.5876 9.25088 25.5091C9.33442 25.4248 9.42663 25.3817 9.5275 25.3799C9.79623 25.3774 10.154 25.3884 10.6008 25.4131C11.0483 25.4312 11.4112 25.4562 11.6893 25.4883C12.5304 25.5853 13.1182 25.6967 13.4526 25.8226C13.5357 25.859 13.6009 25.9336 13.6483 26.0464C13.6957 26.1593 13.7159 26.2455 13.709 26.3051C13.6999 26.3846 13.6771 26.4658 13.6407 26.5489C13.6109 26.6327 13.5727 26.7021 13.526 26.7571C13.4224 26.8995 13.1916 27.1548 12.8338 27.5228C12.4767 27.8843 12.0993 28.2468 11.7017 28.6103C11.2804 29.0046 10.8496 29.3945 10.4092 29.7799C9.97543 30.1661 9.69538 30.4123 9.56904 30.5185C9.75524 30.5333 10.0419 30.5496 10.4291 30.5674C11.0562 30.5995 11.5254 30.6334 11.8367 30.6693C12.0817 30.6976 12.3514 30.7455 12.6456 30.813C12.9464 30.8812 13.1672 30.9738 13.3081 31.0907C13.3514 31.1225 13.3857 31.2037 13.4109 31.3341C13.4427 31.4652 13.4541 31.5706 13.4449 31.65C13.435 31.7361 13.3832 31.8073 13.2894 31.8636C13.2023 31.9207 13.0859 31.9408 12.9402 31.924C12.927 31.9225 12.7828 31.8924 12.5077 31.8339C11.9391 31.7012 11.5622 31.6242 11.3767 31.6028L10.6703 31.5314C10.3508 31.508 10.1083 31.4867 9.94277 31.4676C9.53878 31.421 9.20292 31.3655 8.93521 31.3011Z" fill="white"/>
</svg>
