<svg width="39" height="35" viewBox="0 0 39 35" fill="none" xmlns="http://www.w3.org/2000/svg">
<path fill-rule="evenodd" clip-rule="evenodd" d="M28.1797 0C30.872 5.52736e-05 33.0546 2.18329 33.0547 4.87598C33.0547 6.51635 33.1907 8.37366 34.2627 9.61523C37.2142 13.0329 39 17.487 39 22.3574C38.9997 33.1279 30.2692 34.0107 19.5 34.0107C8.73078 34.0107 0.000305155 33.1279 0 22.3574C5.12766e-05 11.5865 8.73063 2.85456 19.5 2.85449C21.8428 2.85439 24.1371 1.28229 26.2979 0.376953C26.8768 0.134434 27.5127 1.77859e-05 28.1797 0ZM17 16.9609L21.96 23.2373L23.1367 22.3066L23.5293 21.9971L19.8096 17.2891L23.3398 14.499L23.7324 14.1895L24.5166 13.5693L23.2764 12L17 16.9609ZM8.38867 11.0137C7.23669 10.9506 6.16369 13.4215 5.99219 16.5322C5.82071 19.643 6.61563 22.2163 7.76758 22.2803C7.7779 22.2808 7.78851 22.2791 7.79883 22.2793C7.8902 22.3304 7.98332 22.3583 8.0791 22.3584C8.47575 22.3581 8.83813 21.9011 9.12402 21.1396C9.66439 20.1348 10.0651 18.5558 10.1641 16.7627C10.3356 13.6517 9.54078 11.0772 8.38867 11.0137Z" fill="white"/>
</svg>
