<svg width="23" height="20" viewBox="0 0 23 20" fill="none" xmlns="http://www.w3.org/2000/svg">
<path d="M16.5732 0C18.1567 0 19.4404 1.28368 19.4404 2.86719C19.4404 3.83183 19.5209 4.92418 20.1514 5.6543C21.8873 7.66415 22.9375 10.2833 22.9375 13.1475C22.9374 19.4814 17.8026 20.001 11.4688 20.001C5.1351 20.001 7.5714e-05 19.4813 0 13.1475C0 6.81347 5.13506 1.67893 11.4688 1.67871C12.8465 1.67871 14.196 0.754077 15.4668 0.22168C15.8071 0.0791291 16.1812 0.000105045 16.5732 0ZM9.23438 6.85449C8.69376 6.85481 8.25586 8.29484 8.25586 10.0713C8.25597 11.8474 8.69383 13.2878 9.23438 13.2881C9.77485 13.2875 10.2138 11.8473 10.2139 10.0713C10.2139 8.295 9.77492 6.85507 9.23438 6.85449ZM4.75195 6.71387C4.21155 6.71476 3.77354 8.15485 3.77344 9.93066C3.77344 11.7068 4.21149 13.1466 4.75195 13.1475C5.2925 13.1469 5.73145 11.707 5.73145 9.93066C5.73135 8.15465 5.29244 6.71444 4.75195 6.71387Z" fill="white"/>
</svg>
