<svg width="39" height="35" viewBox="0 0 39 35" fill="none" xmlns="http://www.w3.org/2000/svg">
<path fill-rule="evenodd" clip-rule="evenodd" d="M28.1797 0C30.872 5.52736e-05 33.0546 2.18329 33.0547 4.87598C33.0547 6.51635 33.1907 8.37366 34.2627 9.61523C37.2142 13.0329 39 17.487 39 22.3574C38.9997 33.1279 30.2692 34.0107 19.5 34.0107C8.73078 34.0107 0.000305155 33.1279 0 22.3574C5.12766e-05 11.5865 8.73063 2.85456 19.5 2.85449C21.8428 2.85439 24.1371 1.28229 26.2979 0.376953C26.8768 0.134434 27.5127 1.77859e-05 28.1797 0ZM18 18.9609L22.96 25.2373L24.1367 24.3066L24.5293 23.9971L20.8096 19.2891L24.3398 16.499L24.7324 16.1895L25.5166 15.5693L24.2764 14L18 18.9609ZM6.15527 12.9141L5.75879 13.2178L9.41309 17.9766L5.84375 20.7178L5.44727 21.0225L4.6543 21.6309L5.87305 23.2178L12.2178 18.3447L7.34473 12L6.15527 12.9141Z" fill="white"/>
</svg>
